{
	"asset":{
		"version":"2.0",
		"generator":""
	},
	"scenes":[{
		"nodes":[0]
	}],
	"nodes":[{
		"name":"Default",
		"children":[1,
		2,
		3,
		4,
		5]
	},
	{
		"name":"Default-rough_plastic",
		"mesh":0
	},
	{
		"name":"Default-glassy_plastic",
		"mesh":1
	},
	{
		"name":"Default-steel",
		"mesh":2
	},
	{
		"name":"Default-PBR",
		"mesh":3
	},
	{
		"name":"Default-rough_plastic",
		"mesh":4
	}],
	"meshes":[{
		"name":"Default-rough_plastic",
		"primitives":[{
			"attributes":{
				"POSITION":1,
				"NORMAL":2,
				"TEXCOORD_0":3
			},
			"indices":0,
			"material":0
		}]
	},
	{
		"name":"Default-glassy_plastic",
		"primitives":[{
			"attributes":{
				"POSITION":5,
				"NORMAL":6,
				"TEXCOORD_0":7
			},
			"indices":4,
			"material":1
		}]
	},
	{
		"name":"Default-steel",
		"primitives":[{
			"attributes":{
				"POSITION":9,
				"NORMAL":10,
				"TEXCOORD_0":11
			},
			"indices":8,
			"material":2
		}]
	},
	{
		"name":"Default-PBR",
		"primitives":[{
			"attributes":{
				"POSITION":13,
				"NORMAL":14,
				"TEXCOORD_0":15
			},
			"indices":12,
			"material":3
		}]
	},
	{
		"name":"Default-rough_plastic",
		"primitives":[{
			"attributes":{
				"POSITION":17,
				"NORMAL":18,
				"TEXCOORD_0":19
			},
			"indices":16,
			"material":0
		}]
	}],
	"accessors":[{
		"bufferView":0,
		"type":"SCALAR",
		"max":[161],
		"componentType":5123,
		"count":162,
		"byteOffset":0,
		"min":[0]
	},
	{
		"bufferView":1,
		"type":"VEC3",
		"max":[0.0860230028629303,
		-0.05300639942288399,
		0.07538189738988877],
		"componentType":5126,
		"count":162,
		"byteOffset":0,
		"min":[-0.0879800021648407,
		-0.05300639942288399,
		-0.0986211970448494]
	},
	{
		"bufferView":1,
		"type":"VEC3",
		"max":[0.0,
		-1.0,
		0.0],
		"componentType":5126,
		"count":162,
		"byteOffset":12,
		"min":[0.0,
		-1.0,
		0.0]
	},
	{
		"bufferView":1,
		"type":"VEC2",
		"max":[0.983299970626831,
		0.983299970626831],
		"componentType":5126,
		"count":162,
		"byteOffset":24,
		"min":[0.016699999570846559,
		0.016699999570846559]
	},
	{
		"bufferView":2,
		"type":"SCALAR",
		"max":[41],
		"componentType":5123,
		"count":42,
		"byteOffset":0,
		"min":[0]
	},
	{
		"bufferView":3,
		"type":"VEC3",
		"max":[0.08852150291204453,
		-0.046006299555301669,
		0.07788039743900299],
		"componentType":5126,
		"count":42,
		"byteOffset":0,
		"min":[-0.09044239670038223,
		-0.046006299555301669,
		-0.10111960023641586]
	},
	{
		"bufferView":3,
		"type":"VEC3",
		"max":[0.3888194262981415,
		0.9212351441383362,
		0.3919977843761444],
		"componentType":5126,
		"count":42,
		"byteOffset":12,
		"min":[-0.3919977843761444,
		0.9186617732048035,
		-0.3888194262981415]
	},
	{
		"bufferView":3,
		"type":"VEC2",
		"max":[0.9972000122070313,
		0.9972000122070313],
		"componentType":5126,
		"count":42,
		"byteOffset":24,
		"min":[0.003000000026077032,
		0.00279999990016222]
	},
	{
		"bufferView":4,
		"type":"SCALAR",
		"max":[2879],
		"componentType":5123,
		"count":2880,
		"byteOffset":0,
		"min":[0]
	},
	{
		"bufferView":5,
		"type":"VEC3",
		"max":[0.22733360528945924,
		0.04166150093078613,
		-0.005530700087547302],
		"componentType":5126,
		"count":2880,
		"byteOffset":0,
		"min":[0.15061019361019135,
		0.04059239849448204,
		-0.008553000167012215]
	},
	{
		"bufferView":5,
		"type":"VEC3",
		"max":[0.7212456464767456,
		0.9997332692146301,
		0.737084150314331],
		"componentType":5126,
		"count":2880,
		"byteOffset":12,
		"min":[-0.7212456464767456,
		-0.9997332692146301,
		-0.7369945645332336]
	},
	{
		"bufferView":5,
		"type":"VEC2",
		"max":[1.0,
		1.0],
		"componentType":5126,
		"count":2880,
		"byteOffset":24,
		"min":[-0.012299999594688416,
		0.0]
	},
	{
		"bufferView":6,
		"type":"SCALAR",
		"max":[5],
		"componentType":5123,
		"count":6,
		"byteOffset":0,
		"min":[0]
	},
	{
		"bufferView":7,
		"type":"VEC3",
		"max":[0.263760507106781,
		0.339952290058136,
		0.0007911999709904194],
		"componentType":5126,
		"count":6,
		"byteOffset":0,
		"min":[-0.26663950085639956,
		0.06485140323638916,
		-0.005571899935603142]
	},
	{
		"bufferView":7,
		"type":"VEC3",
		"max":[0.0,
		0.02309552952647209,
		0.9997332692146301],
		"componentType":5126,
		"count":6,
		"byteOffset":12,
		"min":[0.0,
		0.02309552952647209,
		0.9997332692146301]
	},
	{
		"bufferView":7,
		"type":"VEC2",
		"max":[0.9998999834060669,
		1.0002999305725098],
		"componentType":5126,
		"count":6,
		"byteOffset":24,
		"min":[0.00009999999747378752,
		0.0]
	},
	{
		"bufferView":8,
		"type":"SCALAR",
		"max":[13667],
		"componentType":5123,
		"count":13668,
		"byteOffset":0,
		"min":[0]
	},
	{
		"bufferView":9,
		"type":"VEC3",
		"max":[0.2677604854106903,
		0.34400761127471926,
		0.07838039845228195],
		"componentType":5126,
		"count":13668,
		"byteOffset":0,
		"min":[-0.2696394920349121,
		-0.055006299167871478,
		-0.10161960124969483]
	},
	{
		"bufferView":9,
		"type":"VEC3",
		"max":[1.0,
		1.0,
		0.9997332692146301],
		"componentType":5126,
		"count":13668,
		"byteOffset":12,
		"min":[-1.0,
		-1.0,
		-0.9997332692146301]
	},
	{
		"bufferView":9,
		"type":"VEC2",
		"max":[1.0123000144958497,
		1.0715999603271485],
		"componentType":5126,
		"count":13668,
		"byteOffset":24,
		"min":[-0.01119999960064888,
		-0.07159999012947083]
	}],
	"bufferViews":[{
		"buffer":0,
		"byteOffset":0,
		"byteLength":324,
		"target":34963
	},
	{
		"buffer":0,
		"byteOffset":324,
		"byteLength":5184,
		"target":34962,
		"byteStride":32
	},
	{
		"buffer":1,
		"byteOffset":0,
		"byteLength":84,
		"target":34963
	},
	{
		"buffer":1,
		"byteOffset":84,
		"byteLength":1344,
		"target":34962,
		"byteStride":32
	},
	{
		"buffer":2,
		"byteOffset":0,
		"byteLength":5760,
		"target":34963
	},
	{
		"buffer":2,
		"byteOffset":5760,
		"byteLength":92160,
		"target":34962,
		"byteStride":32
	},
	{
		"buffer":3,
		"byteOffset":0,
		"byteLength":12,
		"target":34963
	},
	{
		"buffer":3,
		"byteOffset":12,
		"byteLength":192,
		"target":34962,
		"byteStride":32
	},
	{
		"buffer":4,
		"byteOffset":0,
		"byteLength":27336,
		"target":34963
	},
	{
		"buffer":4,
		"byteOffset":27336,
		"byteLength":437376,
		"target":34962,
		"byteStride":32
	}],
	"buffers":[{
		"uri":"data:application/octet-stream;base64,",
		"byteLength":5508
	},
	{
		"uri":"data:application/octet-stream;base64,",
		"byteLength":1428
	},
	{
		"uri":"data:application/octet-stream;base64,",
		"byteLength":97920
	},
	{
		"uri":"data:application/octet-stream;base64,",
		"byteLength":204
	},
	{
		"uri":"data:application/octet-stream;base64,",
		"byteLength":464712
	}],
	"images":[{
		"uri":"data:image/jpeg;base64,"
	}],
	"samplers":[{
		"magFilter":9729,
		"minFilter":9729,
		"wrapS":10497,
		"wrapT":10497
	},
	{
		"magFilter":9729,
		"minFilter":9729,
		"wrapS":10497,
		"wrapT":10497
	}],
	"textures":[{
		"sampler":0,
		"source":0
	},
	{
		"sampler":1,
		"source":0
	}],
	"materials":[{
		"pbrMetallicRoughness":{
			"baseColorFactor":[0.0,
			0.0,
			0.0,
			1.0],
			"metallicFactor":0.1,
			"roughnessFactor":0.4
		},
		"emissiveFactor":[0.0,
		0.0,
		0.0],
		"alphaMode":"OPAQUE",
		"doubleSided":false,
		"name":"rough_plastic"
	},
	{
		"pbrMetallicRoughness":{
			"baseColorFactor":[0.0,
			0.0,
			0.0,
			1.0],
			"metallicFactor":0.1,
			"roughnessFactor":0.1
		},
		"emissiveFactor":[0.0,
		0.0,
		0.0],
		"alphaMode":"OPAQUE",
		"doubleSided":false,
		"name":"glassy_plastic"
	},
	{
		"pbrMetallicRoughness":{
			"baseColorFactor":[0.8,
			0.8,
			0.8,
			1.0],
			"metallicFactor":1.0,
			"roughnessFactor":0.1
		},
		"emissiveFactor":[0.0,
		0.0,
		0.0],
		"alphaMode":"OPAQUE",
		"doubleSided":false,
		"name":"steel"
	},
	{
		"pbrMetallicRoughness":{
			"baseColorTexture":{
				"index":0
			},
			"baseColorFactor":[1.0,
			1.0,
			1.0,
			1.0],
			"metallicFactor":0.1,
			"roughnessFactor":0.1
		},
		"occlusionTexture":{
			"index":1,
			"strength":1.0
		},
		"emissiveFactor":[0.0,
		0.0,
		0.0],
		"alphaMode":"OPAQUE",
		"doubleSided":false,
		"name":"PBR"
	}]
}
