<svg id="Layer_1" data-name="Layer 1" xmlns="http://www.w3.org/2000/svg" viewBox="0 0 970 481.37"><defs><style>.cls-1,.cls-2{fill:#000003;}.cls-1{fill-rule:evenodd;}</style></defs><path class="cls-1" d="M327.71,427.7H68.64l-.57-168.11H295a102.64,102.64,0,0,1,23.9,2.57,45.15,45.15,0,0,1,19.9,11.1,26.87,26.87,0,0,1,8.94,17.38c.66,6.65,1,12.24,1,16.82V377q0,10.82-1,24.47t-14.27,22.8Z" transform="translate(-25 -259.59)"/><path class="cls-1" d="M350.06,481.86v98.55q0,23.34-13.28,34.73-11.94,12-40.46,12H69.39L68.82,459l257.53-.78A23.64,23.64,0,0,1,350.06,481.86Z" transform="translate(-25 -259.59)"/><polygon class="cls-1" points="587.18 168.11 383.4 168.11 426.57 0 544 0 587.18 168.11"/><path class="cls-1" d="M670.52,626v1.13H563q-1.35-10.82-4-27.61T552.4,561H468.81q-.68,2.88-2,11.4c-.9,5.72-1.88,12.06-3,19.09s-2.21,13.85-3.32,20.49-2.1,11.7-3,15.11H350.06V626l42.87-167H627.65Z" transform="translate(-25 -259.59)"/><path class="cls-1" d="M920.9,427.7H672.49l-2-168.11h217.6c8,0,16.48.21,25.55.57s16,2.48,20.91,6.28c10.14,7.21,15.26,18.79,15.26,34.74v97.58A28.94,28.94,0,0,1,920.9,427.7Z" transform="translate(-25 -259.59)"/><polygon class="cls-1" points="939.41 363.54 939.41 367.52 829.28 367.52 751.67 219.99 751.67 367.52 650.16 367.52 648.18 199.41 852.05 199.41 939.41 363.54"/><path class="cls-1" d="M51.49,381.22A13.25,13.25,0,1,1,38.25,368,13.25,13.25,0,0,1,51.49,381.22Z" transform="translate(-25 -259.59)"/><path class="cls-1" d="M51.49,478.21A13.25,13.25,0,1,1,38.25,465,13.25,13.25,0,0,1,51.49,478.21Z" transform="translate(-25 -259.59)"/><path class="cls-1" d="M995,381.22A13.25,13.25,0,1,1,981.75,368,13.25,13.25,0,0,1,995,381.22Z" transform="translate(-25 -259.59)"/><path class="cls-1" d="M995,478.21A13.25,13.25,0,1,1,981.75,465,13.25,13.25,0,0,1,995,478.21Z" transform="translate(-25 -259.59)"/><polygon class="cls-1" points="60.25 481.37 43.82 481.37 43.82 400.4 199.02 400.4 199.02 416.57 60.25 416.57 60.25 436.04 199.02 436.04 199.02 452.46 60.25 452.46 60.25 481.37"/><rect class="cls-2" x="328.21" y="400.53" width="16.49" height="80.7"/><polygon class="cls-1" points="574.26 481.37 554.86 481.37 554.86 416.83 473.89 416.83 473.89 400.4 654.96 400.4 654.96 416.57 574.26 416.57 574.26 481.37"/><path class="cls-1" d="M964.41,721.1q0,19.86-19.79,19.86H809.15l.19-16H941.78q6.4,0,6.53-5.95v-4q.13-6.39-6.65-6.4H828.73q-19.58,0-19.58-18.14V679.75q0-19.62,19.2-19.63L964.41,660v16.17H831.78q-6.4,0-6.4,6.47v3.23q0,6.6,6.28,6.6h113q19.8,0,19.79,19.14Z" transform="translate(-25 -259.59)"/></svg>