<svg width="736" height="209" viewBox="0 0 736 209" fill="none" xmlns="http://www.w3.org/2000/svg">
<path d="M436.001 128.717L404.499 188.628H394.723L363.263 128.717H372.998L399.611 179.395L426.224 128.717H436.001Z" fill="black"/>
<path d="M453.005 188.628H444.44V128.717H453.005V188.628Z" fill="black"/>
<path d="M533.555 171.498C533.555 173.894 533.109 176.136 532.218 178.225C531.327 180.286 530.101 182.096 528.541 183.656C527.009 185.188 525.199 186.4 523.11 187.291C521.049 188.182 518.835 188.628 516.467 188.628H464.41V180.063H516.467C517.665 180.063 518.779 179.84 519.809 179.395C520.84 178.949 521.731 178.336 522.483 177.556C523.263 176.776 523.876 175.871 524.322 174.841C524.767 173.782 524.99 172.668 524.99 171.498C524.99 170.329 524.767 169.228 524.322 168.198C523.876 167.167 523.263 166.262 522.483 165.482C521.731 164.702 520.84 164.09 519.809 163.644C518.779 163.198 517.665 162.975 516.467 162.975H481.54C479.2 162.975 476.986 162.53 474.897 161.638C472.808 160.747 470.984 159.536 469.424 158.004C467.892 156.444 466.666 154.62 465.747 152.531C464.856 150.442 464.41 148.213 464.41 145.846C464.41 143.506 464.856 141.292 465.747 139.203C466.666 137.114 467.892 135.304 469.424 133.772C470.984 132.212 472.808 130.987 474.897 130.095C476.986 129.176 479.2 128.717 481.54 128.717H529.293V137.281H481.54C480.37 137.281 479.256 137.504 478.197 137.95C477.167 138.395 476.262 139.008 475.482 139.788C474.702 140.568 474.089 141.487 473.644 142.545C473.198 143.576 472.975 144.676 472.975 145.846C472.975 147.016 473.198 148.13 473.644 149.188C474.089 150.219 474.702 151.124 475.482 151.904C476.262 152.684 477.167 153.297 478.197 153.742C479.256 154.188 480.37 154.411 481.54 154.411H516.467C518.835 154.411 521.049 154.87 523.11 155.789C525.199 156.681 527.009 157.906 528.541 159.466C530.101 160.998 531.327 162.808 532.218 164.897C533.109 166.958 533.555 169.159 533.555 171.498Z" fill="black"/>
<path d="M552.188 188.628H543.624V128.717H552.188V188.628Z" fill="black"/>
<path d="M638.128 158.672C638.128 162.822 637.473 166.722 636.164 170.37C634.855 174.019 632.989 177.194 630.566 179.896C628.17 182.598 625.288 184.728 621.918 186.288C618.547 187.848 614.801 188.628 610.679 188.628H590.75C586.6 188.628 582.826 187.848 579.428 186.288C576.03 184.728 573.12 182.598 570.696 179.896C568.301 177.194 566.449 174.019 565.14 170.37C563.831 166.722 563.176 162.822 563.176 158.672C563.176 154.55 563.831 150.678 565.14 147.058C566.449 143.409 568.301 140.234 570.696 137.532C573.12 134.802 576.03 132.658 579.428 131.098C582.826 129.51 586.6 128.717 590.75 128.717H610.679C614.801 128.717 618.547 129.51 621.918 131.098C625.288 132.658 628.17 134.802 630.566 137.532C632.989 140.234 634.855 143.409 636.164 147.058C637.473 150.678 638.128 154.55 638.128 158.672ZM629.563 158.672C629.563 155.72 629.131 152.948 628.268 150.358C627.404 147.768 626.151 145.512 624.508 143.59C622.892 141.64 620.915 140.108 618.575 138.994C616.263 137.852 613.631 137.281 610.679 137.281H590.75C587.798 137.281 585.138 137.852 582.771 138.994C580.431 140.108 578.439 141.64 576.796 143.59C575.181 145.512 573.927 147.768 573.036 150.358C572.173 152.948 571.741 155.72 571.741 158.672C571.741 161.625 572.173 164.41 573.036 167.028C573.927 169.618 575.181 171.888 576.796 173.838C578.439 175.76 580.431 177.278 582.771 178.392C585.138 179.506 587.798 180.063 590.75 180.063H610.679C613.631 180.063 616.263 179.506 618.575 178.392C620.915 177.278 622.892 175.76 624.508 173.838C626.151 171.888 627.404 169.618 628.268 167.028C629.131 164.41 629.563 161.625 629.563 158.672Z" fill="black"/>
<path d="M657.639 188.628H649.074V128.717H653.335C656.121 128.717 659.073 129.079 662.193 129.803C665.34 130.527 668.543 131.571 671.802 132.936C675.061 134.301 678.305 135.958 681.536 137.908C684.795 139.83 687.942 142.016 690.978 144.467C694.014 146.918 696.869 149.592 699.543 152.489C702.217 155.358 704.612 158.421 706.729 161.68V128.717H715.294V188.628H706.729C706.729 184.227 705.963 179.993 704.431 175.927C702.899 171.833 700.852 167.975 698.29 164.354C695.727 160.733 692.775 157.405 689.433 154.369C686.09 151.305 682.595 148.617 678.946 146.306C675.325 143.994 671.676 142.1 668 140.624C664.323 139.12 660.87 138.117 657.639 137.615V188.628Z" fill="black"/>
<path fill-rule="evenodd" clip-rule="evenodd" d="M342.895 0H0V209H342.895V0ZM20.372 188.628H28.9367V137.616C32.1677 138.117 35.6214 139.12 39.2979 140.624C42.9745 142.1 46.6232 143.994 50.2441 146.306C53.8928 148.617 57.3883 151.305 60.7306 154.369C64.0729 157.405 67.0253 160.733 69.5878 164.354C72.1502 167.975 74.1974 171.833 75.7293 175.927C77.2612 179.994 78.0272 184.227 78.0272 188.628H86.5919V128.717H78.0272V161.68C75.9103 158.422 73.515 155.358 70.8411 152.489C68.1673 149.592 65.3124 146.918 62.2764 144.467C59.2405 142.016 56.0931 139.83 52.8344 137.908C49.6035 135.958 46.3586 134.301 43.0998 132.936C39.8411 131.572 36.638 130.527 33.4907 129.803C30.3712 129.079 27.4188 128.717 24.6335 128.717H20.372V188.628ZM170.568 170.37C171.877 166.722 172.531 162.822 172.531 158.672C172.531 154.55 171.877 150.679 170.568 147.058C169.259 143.409 167.393 140.234 164.969 137.532C162.574 134.802 159.691 132.658 156.321 131.098C152.951 129.51 149.205 128.717 145.083 128.717H125.154C121.004 128.717 117.23 129.51 113.832 131.098C110.434 132.658 107.523 134.802 105.1 137.532C102.705 140.234 100.852 143.409 99.5434 147.058C98.2343 150.679 97.5798 154.55 97.5798 158.672C97.5798 162.822 98.2343 166.722 99.5434 170.37C100.852 174.019 102.705 177.194 105.1 179.896C107.523 182.598 110.434 184.728 113.832 186.288C117.23 187.848 121.004 188.628 125.154 188.628H145.083C149.205 188.628 152.951 187.848 156.321 186.288C159.691 184.728 162.574 182.598 164.969 179.896C167.393 177.194 169.259 174.019 170.568 170.37ZM162.672 150.358C163.535 152.949 163.967 155.72 163.967 158.672C163.967 161.625 163.535 164.41 162.672 167.028C161.808 169.618 160.555 171.888 158.911 173.838C157.296 175.76 155.318 177.278 152.979 178.392C150.667 179.506 148.035 180.063 145.083 180.063H125.154C122.202 180.063 119.542 179.506 117.174 178.392C114.835 177.278 112.843 175.76 111.2 173.838C109.584 171.888 108.331 169.618 107.44 167.028C106.576 164.41 106.144 161.625 106.144 158.672C106.144 155.72 106.576 152.949 107.44 150.358C108.331 147.768 109.584 145.512 111.2 143.59C112.843 141.64 114.835 140.108 117.174 138.994C119.542 137.852 122.202 137.281 125.154 137.281H145.083C148.035 137.281 150.667 137.852 152.979 138.994C155.318 140.108 157.296 141.64 158.911 143.59C160.555 145.512 161.808 147.768 162.672 150.358ZM175.832 128.717H185.566L212.18 179.395L238.793 128.717H248.569L217.068 188.628H207.292L175.832 128.717ZM313.954 188.628H322.518V128.717H283.246C280.489 128.717 277.843 129.079 275.308 129.803C272.773 130.499 270.392 131.502 268.164 132.811C265.963 134.12 263.944 135.694 262.106 137.532C260.295 139.342 258.736 141.362 257.427 143.59C256.145 145.79 255.143 148.172 254.418 150.734C253.722 153.269 253.374 155.915 253.374 158.672V188.628H261.939V158.672C261.939 155.72 262.496 152.949 263.61 150.358C264.752 147.768 266.284 145.512 268.206 143.59C270.127 141.64 272.383 140.108 274.974 138.994C277.564 137.852 280.321 137.281 283.246 137.281H313.954V162.976H266.158V171.498H313.954V188.628Z" fill="black"/>
</svg>
